<svg xmlns="http://www.w3.org/2000/svg" xmlns:xlink="http://www.w3.org/1999/xlink" preserveAspectRatio="xMidYMid meet" width="80" height="80" viewBox="0 0 80 80" style="width:100%;height:100%"><defs><animate attributeType="XML" attributeName="opacity" dur="2s" from="0" to="1" xlink:href="#time_group"/></defs><g id="_R_G"><g id="_R_G_L_0_G" transform=" translate(40, 40) translate(0, 0)"><path id="_R_G_L_0_G_D_0_P_0" fill="#fb0f1a" fill-opacity="1" fill-rule="nonzero" d=" M20 -20 C20,-20 20,20 20,20 C20,20 -20,20 -20,20 C-20,20 -20,-20 -20,-20 C-20,-20 20,-20 20,-20z "/><g id="_R_G_L_0_G_D_1_P_0_G_0_T_0"><g id="_R_G_L_0_G_D_1_P_0_G_1_T_0" transform=" scale(0.5, 1.2)"><path id="_R_G_L_0_G_D_1_P_0" fill="#3250b0" fill-opacity="1" fill-rule="nonzero" opacity="0.5" d=" M20 -20 C20,-20 20,20 20,20 C20,20 -20,20 -20,20 C-20,20 -20,-20 -20,-20 C-20,-20 20,-20 20,-20z "/></g></g></g></g><g id="time_group"/></svg>