<svg xmlns="http://www.w3.org/2000/svg" xmlns:xlink="http://www.w3.org/1999/xlink" preserveAspectRatio="xMidYMid meet" width="80" height="80" viewBox="0 0 80 80" style="width:100%;height:100%">
    <defs>
        <clipPath id="_R_G_L_0_C_0">
            <path id="_R_G_L_0_C_0_P_0" fill-rule="nonzero"
                  d="M9.5 8.5 C9.5,8.5 -4.98,-13.82 -12.5,-3.25 C-20.5,8 -8.25,35.75 -8.25,35.75 C-8.25,35.75 36.25,35.75 36.25,35.75 C36.25,35.75 36.25,-3.5 36.25,-3.5 C36.25,-3.5 9.5,8.5 9.5,8.5z "/>
        </clipPath>
        <animate attributeType="XML" attributeName="opacity" dur="2s" from="0" to="1" xlink:href="#time_group"/>
    </defs>
    <g id="_R_G">
        <g id="_R_G_L_0_G" transform=" translate(40, 40) translate(0, 0)">
            <g clip-path="url(#_R_G_L_0_C_0)">
                <path id="_R_G_L_0_G_G_0_D_0_P_0" fill="#3250b0" fill-opacity="1" fill-rule="nonzero" d=" M-4.5 -15.5 C7.78,-15.5 17.75,-6.71 17.75,4.13 C17.75,14.96 7.78,23.75 -4.5,23.75 C-16.78,23.75 -26.75,14.96 -26.75,4.13 C-26.75,-6.71 -16.78,-15.5 -4.5,-15.5z "/><path id="_R_G_L_0_G_G_0_D_1_P_0" stroke="#1d2848" stroke-linecap="round" stroke-linejoin="round" fill="none" stroke-width="6" stroke-opacity="1" d=" M-4.5 -15.5 C7.78,-15.5 17.75,-6.71 17.75,4.13 C17.75,14.96 7.78,23.75 -4.5,23.75 C-16.78,23.75 -26.75,14.96 -26.75,4.13 C-26.75,-6.71 -16.78,-15.5 -4.5,-15.5z "/>
            </g>
        </g>
    </g>
    <g id="time_group"/>
</svg>
