<svg xmlns="http://www.w3.org/2000/svg" xmlns:xlink="http://www.w3.org/1999/xlink" preserveAspectRatio="xMidYMid meet" width="80" height="80" viewBox="0 0 80 80" style="width:100%;height:100%"><defs><animate attributeType="XML" attributeName="opacity" dur="1s" from="0" to="1" xlink:href="#time_group"/></defs><g id="_R_G"><g id="_R_G_L_2_G" transform=" translate(52.75, 40.25) rotate(20) translate(0, 0)"><path id="_R_G_L_2_G_D_0_P_0" fill="#000cff" fill-opacity="1" fill-rule="nonzero" d=" M-10.5 3.25 C-10.5,3.25 -10.5,30 -10.5,30 C-10.5,30 -22.75,30 -22.75,30 C-22.75,30 -22.75,3.25 -22.75,3.25 C-22.75,3.25 -10.5,3.25 -10.5,3.25z "/></g><g id="_R_G_L_1_G" transform=" translate(40, 40) translate(0, 0)"><path id="_R_G_L_1_G_D_0_P_0" fill="#4eff00" fill-opacity="1" fill-rule="nonzero" d=" M33.75 -16.25 C33.75,-16.25 33.75,13.75 33.75,13.75 C33.75,13.75 -34.5,13.75 -34.5,13.75 C-34.5,13.75 -34.5,-16.25 -34.5,-16.25 C-34.5,-16.25 33.75,-16.25 33.75,-16.25z "/></g><g id="_R_G_L_0_G_N_3_T_0" transform=" translate(52.75, 40.25) rotate(20) translate(0, 0)"><g id="_R_G_L_0_G"><path id="_R_G_L_0_G_D_0_P_0" fill="#ff4200" fill-opacity="1" fill-rule="nonzero" d=" M-8.75 -28.25 C-8.75,-28.25 -8.75,-4.25 -8.75,-4.25 C-8.75,-4.25 -22,-4.25 -22,-4.25 C-22,-4.25 -22,-28.25 -22,-28.25 C-22,-28.25 -8.75,-28.25 -8.75,-28.25z "/></g></g></g><g id="time_group"/></svg>