<svg xmlns="http://www.w3.org/2000/svg" viewBox="0 0 80 80" xmlns:dc="http://purl.org/dc/elements/1.1/" xmlns:osb="http://www.openswatchbook.org/uri/2009/osb" inkscape:export-xdpi="96" style="fill:none;stroke:none;" xmlns:cc="http://creativecommons.org/ns#" xmlns:svg="http://www.w3.org/2000/svg" version="1.1" xmlns:rdf="http://www.w3.org/1999/02/22-rdf-syntax-ns#" width="80" height="80" xmlns:inkscape="http://www.inkscape.org/namespaces/inkscape" inkscape:export-ydpi="96" xmlns:sodipodi="http://sodipodi.sourceforge.net/DTD/sodipodi-0.dtd" xmlns:xlink="http://www.w3.org/1999/xlink">
    <title>Comp 1</title>
    <defs/>
    <sodipodi:namedview pagecolor="#ffffff" inkscape:document-units="px" bordercolor="#666666" inkscape:pagecheckerboard="true" borderlayer="true"/>
    <metadata>
        <rdf:RDF>
            <cc:Work>
                <dc:format>image/svg+xml</dc:format>
                <dc:type rdf:resource="http://purl.org/dc/dcmitype/StillImage"/>
                <dc:title>Comp 1</dc:title>
            </cc:Work>
        </rdf:RDF>
    </metadata>
    <g inkscape:groupmode="layer" inkscape:label="Comp 1" id="Composition_cfec220329844b63940b6f3f223fdd7b">
        <g opacity="1" inkscape:groupmode="layer" inkscape:label="Shape Layer 1" id="Layer_17fb48672b2d4a8daf57d3fe6d93fc09" transform="matrix(1, 0, 0, 1, 40, 40)">
            <g opacity="1" stroke="#1c2848" stroke-width="2" inkscape:label="Group" stroke-opacity="1" fill-opacity="1" id="Stroke_fa0123e8b5354bc9b5b498094df1d7f2" fill="#3150af" transform="matrix(1, 0, 0, 1, 0, 0)">
                <path style="stroke:none;" sodipodi:nodetypes="ccccc" d="M 1.45941e-15,-14.5508 C 1.51051e-15,-33.9518 32.2901,-10.4917 13.8386,-4.49644 32.2901,-10.4917 19.9564,27.4676 8.55273,11.7718 19.9564,27.4676 -19.9564,27.4676 -8.55273,11.7718 -19.9564,27.4676 -32.2901,-10.4917 -13.8386,-4.49644 -32.2901,-10.4917 1.51051e-15,-33.9518 1.45941e-15,-14.5508 Z"/>
                <path style="fill:none;stroke-dasharray:none;stroke-linecap:butt;stroke-linejoin:round;" sodipodi:nodetypes="ccccc" d="M 1.45941e-15,-14.5508 C 1.51051e-15,-33.9518 32.2901,-10.4917 13.8386,-4.49644 32.2901,-10.4917 19.9564,27.4676 8.55273,11.7718 19.9564,27.4676 -19.9564,27.4676 -8.55273,11.7718 -19.9564,27.4676 -32.2901,-10.4917 -13.8386,-4.49644 -32.2901,-10.4917 1.51051e-15,-33.9518 1.45941e-15,-14.5508 Z"/>
            </g>
        </g>
    </g>
</svg>
