<svg xmlns:osb="http://www.openswatchbook.org/uri/2009/osb" inkscape:export-ydpi="96" style="fill:none;stroke:none;" version="1.1" viewBox="0 0 80 80" xmlns:xlink="http://www.w3.org/1999/xlink" width="80" xmlns:dc="http://purl.org/dc/elements/1.1/" xmlns:svg="http://www.w3.org/2000/svg" xmlns:cc="http://creativecommons.org/ns#" xmlns:rdf="http://www.w3.org/1999/02/22-rdf-syntax-ns#" inkscape:export-xdpi="96" xmlns="http://www.w3.org/2000/svg" height="80" xmlns:inkscape="http://www.inkscape.org/namespaces/inkscape" xmlns:sodipodi="http://sodipodi.sourceforge.net/DTD/sodipodi-0.dtd">
    <title>Comp 1</title>
    <defs/>
    <sodipodi:namedview bordercolor="#666666" borderlayer="true" pagecolor="#ffffff" inkscape:pagecheckerboard="true" inkscape:document-units="px"/>
    <metadata>
        <rdf:RDF>
            <cc:Work>
                <dc:format>image/svg+xml</dc:format>
                <dc:type rdf:resource="http://purl.org/dc/dcmitype/StillImage"/>
                <dc:title>Comp 1</dc:title>
            </cc:Work>
        </rdf:RDF>
    </metadata>
    <g id="Composition_b05205071a024158a24a81b8f21a37fa" inkscape:label="Comp 1" inkscape:groupmode="layer">
        <g opacity="1" id="Layer_c486133fb99c4198a644f335340f092d" inkscape:label="Shape Layer 1" transform="matrix(1, 0, 0, 1, 40, 40)" inkscape:groupmode="layer">
            <g stroke-opacity="1" stroke="#1c2848" opacity="1" id="Stroke_66e95f9f346845a29f0a0855d09ceb24" inkscape:label="Group" transform="matrix(1, 0, 0, 1, 0, 0)" fill-opacity="1" stroke-width="2" fill="#3150af">
                <path style="" sodipodi:nodetypes="cccccccccc" d="M -8.09017,-24.1221 C -3.62521,-27.3661 3.62521,-27.3661 8.09017,-24.1221 8.09017,-24.1221 20.4415,-15.1484 20.4415,-15.1484 24.9065,-11.9044 27.147,-5.00883 25.4415,0.240055 25.4415,0.240055 20.7237,14.7599 20.7237,14.7599 19.0183,20.0088 13.1526,24.2705 7.63356,24.2705 7.63356,24.2705 -7.63356,24.2705 -7.63356,24.2705 -13.1526,24.2705 -19.0183,20.0088 -20.7237,14.7599 -20.7237,14.7599 -25.4415,0.240055 -25.4415,0.240055 -27.147,-5.00883 -24.9065,-11.9044 -20.4415,-15.1484 -20.4415,-15.1484 -8.09017,-24.1221 -8.09017,-24.1221 Z"/>
                <path style="fill:none;stroke-dasharray:none;stroke-linecap:butt;stroke-linejoin:round;" sodipodi:nodetypes="cccccccccc" d="M -8.09017,-24.1221 C -3.62521,-27.3661 3.62521,-27.3661 8.09017,-24.1221 8.09017,-24.1221 20.4415,-15.1484 20.4415,-15.1484 24.9065,-11.9044 27.147,-5.00883 25.4415,0.240055 25.4415,0.240055 20.7237,14.7599 20.7237,14.7599 19.0183,20.0088 13.1526,24.2705 7.63356,24.2705 7.63356,24.2705 -7.63356,24.2705 -7.63356,24.2705 -13.1526,24.2705 -19.0183,20.0088 -20.7237,14.7599 -20.7237,14.7599 -25.4415,0.240055 -25.4415,0.240055 -27.147,-5.00883 -24.9065,-11.9044 -20.4415,-15.1484 -20.4415,-15.1484 -8.09017,-24.1221 -8.09017,-24.1221 Z"/>
            </g>
        </g>
    </g>
</svg>
