<svg viewBox="0 0 80 80" version="1.1" xmlns:inkscape="http://www.inkscape.org/namespaces/inkscape" xmlns="http://www.w3.org/2000/svg" height="80" xmlns:xlink="http://www.w3.org/1999/xlink" style="fill:none;stroke:none;" inkscape:export-xdpi="96" xmlns:rdf="http://www.w3.org/1999/02/22-rdf-syntax-ns#" inkscape:export-ydpi="96" xmlns:cc="http://creativecommons.org/ns#" xmlns:dc="http://purl.org/dc/elements/1.1/" xmlns:osb="http://www.openswatchbook.org/uri/2009/osb" width="80" xmlns:sodipodi="http://sodipodi.sourceforge.net/DTD/sodipodi-0.dtd" xmlns:svg="http://www.w3.org/2000/svg">
    <title>Comp 1</title>
    <defs/>
    <sodipodi:namedview inkscape:pagecheckerboard="true" bordercolor="#666666" inkscape:document-units="px" borderlayer="true" pagecolor="#ffffff"/>
    <metadata>
        <rdf:RDF>
            <cc:Work>
                <dc:format>image/svg+xml</dc:format>
                <dc:type rdf:resource="http://purl.org/dc/dcmitype/StillImage"/>
                <dc:title>Comp 1</dc:title>
            </cc:Work>
        </rdf:RDF>
    </metadata>
    <g inkscape:groupmode="layer" id="Composition_e65b345e52d545a19ad2bb78f0df7ee7" inkscape:label="Comp 1">
        <g opacity="1" inkscape:groupmode="layer" id="Layer_bef785e225484c268166aa873959010a" inkscape:label="Shape Layer 1" transform="matrix(1, 0, 0, 1, 40, 40)">
            <g fill-opacity="1" opacity="1" stroke-width="2" id="Stroke_611780f4ee4f4ca2a1d0a0a4f28e3c37" stroke="#1c2848" inkscape:label="Group" stroke-opacity="1" transform="matrix(1, 0, 0, 1, 0, 0)" fill="#3150af">
                <path sodipodi:nodetypes="ccccccccccccccccccccccccccccccc" style="stroke:none;" d="M 1.59637e-14,-25 C 2.93893,-25 5.30237,-32.3279 7.68001,-30.6005 10.0577,-28.873 4.18389,-20.7799 6.56153,-19.0524 8.93917,-17.325 14.8271,-25.4078 17.2048,-23.6803 19.5824,-21.9529 13.7147,-13.8554 16.0923,-12.1279 18.47,-10.4005 24.3519,-18.4877 26.7295,-16.7602 29.1072,-15.0327 22.8682,-10.5205 23.7764,-7.72542 24.6846,-4.93034 32.3842,-4.94703 31.476,-2.15194 30.5679,0.643142 21.0557,-2.44223 20.1476,0.352858 19.2394,3.14794 28.7461,6.25 27.8379,9.04508 26.9297,11.8402 17.4153,8.76189 16.5071,11.557 15.5989,14.3521 25.108,17.447 24.1998,20.2421 23.2916,23.0372 17.0723,18.498 14.6946,20.2254 12.317,21.9529 14.7122,29.2705 11.7733,29.2705 8.83433,29.2705 8.82928,19.2705 5.89035,19.2705 2.95143,19.2705 2.93893,29.2705 3.06162e-16,29.2705 -2.93893,29.2705 -2.95143,19.2705 -5.89035,19.2705 -8.82928,19.2705 -8.83433,29.2705 -11.7733,29.2705 -14.7122,29.2705 -12.317,21.9529 -14.6946,20.2254 -17.0723,18.498 -23.2916,23.0372 -24.1998,20.2421 -25.108,17.447 -15.5989,14.3521 -16.5071,11.557 -17.4153,8.76189 -26.9297,11.8402 -27.8379,9.04508 -28.7461,6.25 -19.2394,3.14794 -20.1476,0.352858 -21.0557,-2.44223 -30.5679,0.643142 -31.476,-2.15194 -32.3842,-4.94703 -24.6846,-4.93034 -23.7764,-7.72542 -22.8682,-10.5205 -29.1072,-15.0327 -26.7295,-16.7602 -24.3519,-18.4877 -18.47,-10.4005 -16.0923,-12.1279 -13.7147,-13.8554 -19.5824,-21.9529 -17.2048,-23.6803 -14.8271,-25.4078 -8.93917,-17.325 -6.56153,-19.0524 -4.18389,-20.7799 -10.0577,-28.873 -7.68001,-30.6005 -5.30237,-32.3279 -2.93893,-25 1.59637e-14,-25 2.93893,-25 -2.93893,-25 1.59637e-14,-25 Z"/>
                <path sodipodi:nodetypes="ccccccccccccccccccccccccccccccc" style="fill:none;stroke-dasharray:none;stroke-linecap:butt;stroke-linejoin:round;" d="M 1.59637e-14,-25 C 2.93893,-25 5.30237,-32.3279 7.68001,-30.6005 10.0577,-28.873 4.18389,-20.7799 6.56153,-19.0524 8.93917,-17.325 14.8271,-25.4078 17.2048,-23.6803 19.5824,-21.9529 13.7147,-13.8554 16.0923,-12.1279 18.47,-10.4005 24.3519,-18.4877 26.7295,-16.7602 29.1072,-15.0327 22.8682,-10.5205 23.7764,-7.72542 24.6846,-4.93034 32.3842,-4.94703 31.476,-2.15194 30.5679,0.643142 21.0557,-2.44223 20.1476,0.352858 19.2394,3.14794 28.7461,6.25 27.8379,9.04508 26.9297,11.8402 17.4153,8.76189 16.5071,11.557 15.5989,14.3521 25.108,17.447 24.1998,20.2421 23.2916,23.0372 17.0723,18.498 14.6946,20.2254 12.317,21.9529 14.7122,29.2705 11.7733,29.2705 8.83433,29.2705 8.82928,19.2705 5.89035,19.2705 2.95143,19.2705 2.93893,29.2705 3.06162e-16,29.2705 -2.93893,29.2705 -2.95143,19.2705 -5.89035,19.2705 -8.82928,19.2705 -8.83433,29.2705 -11.7733,29.2705 -14.7122,29.2705 -12.317,21.9529 -14.6946,20.2254 -17.0723,18.498 -23.2916,23.0372 -24.1998,20.2421 -25.108,17.447 -15.5989,14.3521 -16.5071,11.557 -17.4153,8.76189 -26.9297,11.8402 -27.8379,9.04508 -28.7461,6.25 -19.2394,3.14794 -20.1476,0.352858 -21.0557,-2.44223 -30.5679,0.643142 -31.476,-2.15194 -32.3842,-4.94703 -24.6846,-4.93034 -23.7764,-7.72542 -22.8682,-10.5205 -29.1072,-15.0327 -26.7295,-16.7602 -24.3519,-18.4877 -18.47,-10.4005 -16.0923,-12.1279 -13.7147,-13.8554 -19.5824,-21.9529 -17.2048,-23.6803 -14.8271,-25.4078 -8.93917,-17.325 -6.56153,-19.0524 -4.18389,-20.7799 -10.0577,-28.873 -7.68001,-30.6005 -5.30237,-32.3279 -2.93893,-25 1.59637e-14,-25 2.93893,-25 -2.93893,-25 1.59637e-14,-25 Z"/>
            </g>
        </g>
    </g>
</svg>
