<svg viewBox="0 0 80 80" version="1.1" xmlns:inkscape="http://www.inkscape.org/namespaces/inkscape" xmlns="http://www.w3.org/2000/svg" height="80" xmlns:xlink="http://www.w3.org/1999/xlink" style="fill:none;stroke:none;" inkscape:export-xdpi="96" xmlns:rdf="http://www.w3.org/1999/02/22-rdf-syntax-ns#" inkscape:export-ydpi="96" xmlns:cc="http://creativecommons.org/ns#" xmlns:dc="http://purl.org/dc/elements/1.1/" xmlns:osb="http://www.openswatchbook.org/uri/2009/osb" width="80" xmlns:sodipodi="http://sodipodi.sourceforge.net/DTD/sodipodi-0.dtd" xmlns:svg="http://www.w3.org/2000/svg">
    <title>Comp 1</title>
    <defs/>
    <sodipodi:namedview inkscape:pagecheckerboard="true" bordercolor="#666666" inkscape:document-units="px" borderlayer="true" pagecolor="#ffffff"/>
    <metadata>
        <rdf:RDF>
            <cc:Work>
                <dc:format>image/svg+xml</dc:format>
                <dc:type rdf:resource="http://purl.org/dc/dcmitype/StillImage"/>
                <dc:title>Comp 1</dc:title>
            </cc:Work>
        </rdf:RDF>
    </metadata>
    <g inkscape:groupmode="layer" id="Composition_e65b345e52d545a19ad2bb78f0df7ee7" inkscape:label="Comp 1">
        <g opacity="1" inkscape:groupmode="layer" id="Layer_bef785e225484c268166aa873959010a" inkscape:label="Shape Layer 1" transform="matrix(1, 0, 0, 1, 40, 40)">
            <g fill-opacity="1" opacity="1" stroke-width="2" id="Stroke_611780f4ee4f4ca2a1d0a0a4f28e3c37" stroke="#1c2848" inkscape:label="Group" stroke-opacity="1" transform="matrix(1, 0, 0, 1, 0, 0)" fill="#3150af">
                <path sodipodi:nodetypes="ccccccccccccccccccccccccccccccc" style="stroke:none;" d="M 1.59637e-14,-25 C 1.59637e-14,-25 7.68001,-30.6005 7.68001,-30.6005 7.68001,-30.6005 6.56153,-19.0524 6.56153,-19.0524 6.56153,-19.0524 17.2048,-23.6803 17.2048,-23.6803 17.2048,-23.6803 16.0923,-12.1279 16.0923,-12.1279 16.0923,-12.1279 26.7295,-16.7602 26.7295,-16.7602 26.7295,-16.7602 23.7764,-7.72542 23.7764,-7.72542 23.7764,-7.72542 31.476,-2.15194 31.476,-2.15194 31.476,-2.15194 20.1476,0.352858 20.1476,0.352858 20.1476,0.352858 27.8379,9.04508 27.8379,9.04508 27.8379,9.04508 16.5071,11.557 16.5071,11.557 16.5071,11.557 24.1998,20.2421 24.1998,20.2421 24.1998,20.2421 14.6946,20.2254 14.6946,20.2254 14.6946,20.2254 11.7733,29.2705 11.7733,29.2705 11.7733,29.2705 5.89035,19.2705 5.89035,19.2705 5.89035,19.2705 3.06162e-16,29.2705 3.06162e-16,29.2705 3.06162e-16,29.2705 -5.89035,19.2705 -5.89035,19.2705 -5.89035,19.2705 -11.7733,29.2705 -11.7733,29.2705 -11.7733,29.2705 -14.6946,20.2254 -14.6946,20.2254 -14.6946,20.2254 -24.1998,20.2421 -24.1998,20.2421 -24.1998,20.2421 -16.5071,11.557 -16.5071,11.557 -16.5071,11.557 -27.8379,9.04508 -27.8379,9.04508 -27.8379,9.04508 -20.1476,0.352858 -20.1476,0.352858 -20.1476,0.352858 -31.476,-2.15194 -31.476,-2.15194 -31.476,-2.15194 -23.7764,-7.72542 -23.7764,-7.72542 -23.7764,-7.72542 -26.7295,-16.7602 -26.7295,-16.7602 -26.7295,-16.7602 -16.0923,-12.1279 -16.0923,-12.1279 -16.0923,-12.1279 -17.2048,-23.6803 -17.2048,-23.6803 -17.2048,-23.6803 -6.56153,-19.0524 -6.56153,-19.0524 -6.56153,-19.0524 -7.68001,-30.6005 -7.68001,-30.6005 -7.68001,-30.6005 1.59637e-14,-25 1.59637e-14,-25 1.59637e-14,-25 1.59637e-14,-25 1.59637e-14,-25 Z"/>
                <path sodipodi:nodetypes="ccccccccccccccccccccccccccccccc" style="fill:none;stroke-dasharray:none;stroke-linecap:butt;stroke-linejoin:round;" d="M 1.59637e-14,-25 C 1.59637e-14,-25 7.68001,-30.6005 7.68001,-30.6005 7.68001,-30.6005 6.56153,-19.0524 6.56153,-19.0524 6.56153,-19.0524 17.2048,-23.6803 17.2048,-23.6803 17.2048,-23.6803 16.0923,-12.1279 16.0923,-12.1279 16.0923,-12.1279 26.7295,-16.7602 26.7295,-16.7602 26.7295,-16.7602 23.7764,-7.72542 23.7764,-7.72542 23.7764,-7.72542 31.476,-2.15194 31.476,-2.15194 31.476,-2.15194 20.1476,0.352858 20.1476,0.352858 20.1476,0.352858 27.8379,9.04508 27.8379,9.04508 27.8379,9.04508 16.5071,11.557 16.5071,11.557 16.5071,11.557 24.1998,20.2421 24.1998,20.2421 24.1998,20.2421 14.6946,20.2254 14.6946,20.2254 14.6946,20.2254 11.7733,29.2705 11.7733,29.2705 11.7733,29.2705 5.89035,19.2705 5.89035,19.2705 5.89035,19.2705 3.06162e-16,29.2705 3.06162e-16,29.2705 3.06162e-16,29.2705 -5.89035,19.2705 -5.89035,19.2705 -5.89035,19.2705 -11.7733,29.2705 -11.7733,29.2705 -11.7733,29.2705 -14.6946,20.2254 -14.6946,20.2254 -14.6946,20.2254 -24.1998,20.2421 -24.1998,20.2421 -24.1998,20.2421 -16.5071,11.557 -16.5071,11.557 -16.5071,11.557 -27.8379,9.04508 -27.8379,9.04508 -27.8379,9.04508 -20.1476,0.352858 -20.1476,0.352858 -20.1476,0.352858 -31.476,-2.15194 -31.476,-2.15194 -31.476,-2.15194 -23.7764,-7.72542 -23.7764,-7.72542 -23.7764,-7.72542 -26.7295,-16.7602 -26.7295,-16.7602 -26.7295,-16.7602 -16.0923,-12.1279 -16.0923,-12.1279 -16.0923,-12.1279 -17.2048,-23.6803 -17.2048,-23.6803 -17.2048,-23.6803 -6.56153,-19.0524 -6.56153,-19.0524 -6.56153,-19.0524 -7.68001,-30.6005 -7.68001,-30.6005 -7.68001,-30.6005 1.59637e-14,-25 1.59637e-14,-25 1.59637e-14,-25 1.59637e-14,-25 1.59637e-14,-25 Z"/>
            </g>
        </g>
    </g>
</svg>
